<?xml version="1.0" encoding="UTF-8"?>
<svg width="30px" height="21px" viewBox="0 0 30 21" version="1.1" xmlns="http://www.w3.org/2000/svg" xmlns:xlink="http://www.w3.org/1999/xlink">
    <title>编组 16备份</title>
    <g id="页面-1" stroke="none" stroke-width="1" fill="none" fill-rule="evenodd">
        <g id="箭头" transform="translate(0.000000, -1.000000)" fill="#1E91E4">
            <g id="编组-15备份" transform="translate(0.000000, 1.000000)">
                <path d="M17.8698071,21 L28.5288894,11.7734061 C29.2321722,11.1646384 29.3087918,10.1010114 28.7000242,9.39772868 C28.647157,9.33665359 28.5899645,9.27946105 28.5288894,9.22659393 L17.8698071,0 L17.8698071,0 L13,0 L21.6771922,9.35463311 C22.2764231,10.0006468 22.2764231,10.9993532 21.6771922,11.6453669 L13,21 L13,21 L17.8698071,21 Z" id="路径-4"></path>
                <path d="M4.86980713,21 L15.5288894,11.7734061 C16.2321722,11.1646384 16.3087918,10.1010114 15.7000242,9.39772868 C15.647157,9.33665359 15.5899645,9.27946105 15.5288894,9.22659393 L4.86980713,0 L4.86980713,0 L0,0 L8.67719219,9.35463311 C9.2764231,10.0006468 9.2764231,10.9993532 8.67719219,11.6453669 L0,21 L0,21 L4.86980713,21 Z" id="路径-4备份"></path>
            </g>
        </g>
    </g>
</svg>